             <svg id="sw-js-blob-svg" viewBox="0 0 100 100" xmlns="http://www.w3.org/2000/svg" version="1.1">
                    <defs> 
                        <linearGradient id="sw-gradient" x1="0" x2="1" y1="1" y2="0">
                            <stop id="stop1" stop-color="rgba(255, 255, 255, 1)" offset="0%"></stop>
                            <stop id="stop2" stop-color="rgba(253.897, 133.399, 239.781, 1)" offset="100%"></stop>
                        </linearGradient>
                    </defs>
                <path fill="url(#sw-gradient)" d="M22,-36.7C28.8,-34.2,34.8,-28.9,39,-22.3C43.2,-15.7,45.6,-7.9,43.1,-1.4C40.6,5,33.3,10,27.8,14.2C22.2,18.4,18.3,21.7,14,26.9C9.7,32.1,4.8,39.2,-0.4,39.9C-5.7,40.6,-11.3,35,-17.5,30.9C-23.6,26.7,-30.3,24,-35.5,19.1C-40.7,14.2,-44.6,7.1,-42.9,1C-41.2,-5.2,-34,-10.3,-28.7,-15C-23.3,-19.8,-19.9,-24.1,-15.4,-28C-10.9,-31.9,-5.5,-35.4,1.1,-37.2C7.6,-39,15.2,-39.2,22,-36.7Z" width="100%" height="100%" transform="translate(50 50)" stroke-width="0" style="transition: 0.3s;"></path>
              </svg>